<svg width="149" height="127" viewBox="0 0 149 127" fill="none" xmlns="http://www.w3.org/2000/svg">
<path d="M146.365 78.7792C136.479 112.453 96.4577 133.037 56.6344 124.613C17.0805 116.197 -7.09706 82.1244 2.79736 48.2208C12.6839 14.5465 52.7052 -6.03709 92.5284 2.38654C132.082 10.8034 156.26 44.8756 146.365 78.7792Z" fill="#A9A9A9"/>
<path d="M85.9613 38H62.394L60.4623 48.895L81.7115 48.9337C92.1815 48.9337 95.2723 52.7199 95.195 59.0174C95.1564 62.2627 93.7656 67.7102 93.1474 69.4874C91.5247 74.2009 88.2408 79.6098 75.8003 79.5712H55.1307L53.1603 90.5048H76.6503C84.9182 90.5048 88.4726 89.539 92.1815 87.8004C100.449 83.9755 105.395 75.8236 107.365 65.1603C110.34 49.2814 106.67 38 85.9613 38Z" fill="white"/>
<path d="M52.2716 58.7856C46.0901 58.7856 45.2015 62.8036 44.6219 65.2376C43.8492 68.4057 43.6174 69.7193 43.6174 69.7193H67.7256C73.9072 69.7193 74.7958 65.7012 75.3753 63.2672C76.148 60.0992 76.3798 58.7856 76.3798 58.7856H52.2716Z" fill="white"/>
</svg>
