<svg width="174" height="127" viewBox="0 0 174 127" fill="none" xmlns="http://www.w3.org/2000/svg">
<path d="M87.2768 127C135.173 127 174 98.5701 174 63.5C174 28.4299 135.173 0 87.2768 0C39.381 0 0.553711 28.4299 0.553711 63.5C0.553711 98.5701 39.381 127 87.2768 127Z" fill="#A9A9A9"/>
<path d="M94.7837 66.8832V66.8736C94.331 66.9024 91.994 67.0273 86.7934 67.0273C82.6351 67.0273 79.719 66.9216 78.6874 66.8736V66.8832C62.6963 66.2395 50.7688 63.7032 50.7688 60.6577C50.7688 57.6218 62.7068 55.0759 78.6874 54.4322V64.3565C79.7296 64.4237 82.7299 64.5871 86.8671 64.5871C91.836 64.5871 94.3205 64.3949 94.7837 64.3565V54.4418C110.743 55.0951 122.639 57.6314 122.639 60.6673C122.639 63.7032 110.733 66.2395 94.7837 66.8928V66.8832ZM94.7837 53.4138V44.5367H117.049V31H56.4325V44.5367H78.6979V53.4138C60.6014 54.1728 47 57.4392 47 61.359C47 65.2788 60.6119 68.5453 78.6979 69.3139V97.7706H94.7942V69.3139C112.859 68.5549 126.439 65.2884 126.439 61.3686C126.439 57.4585 112.859 54.1824 94.7942 53.4234" fill="#F8F8FC"/>
</svg>
