<svg width="167" height="111" viewBox="0 0 167 111" fill="none" xmlns="http://www.w3.org/2000/svg">
<path d="M54.4336 0H113.295C113.26 0.886491 112.991 1.74026 112.523 2.45041C110.531 6.34156 108.737 10.3915 106.78 14.2827C104.01 19.8698 101.419 25.5591 98.6049 31.1236C96.8215 35.1282 94.809 39.008 92.906 42.9445C81.4684 42.9445 70.0308 42.9445 58.5932 42.9445C57.9954 42.9445 57.4026 42.9785 56.8048 43.0182C56.3066 44.5157 55.4797 45.826 54.8122 47.2327C53.9404 48.8436 53.233 50.5623 52.3712 52.1732C51.4596 54.34 50.1993 56.2799 49.2827 58.4411C47.3897 62.0997 45.6212 65.815 43.7681 69.5133C41.8353 73.2948 39.9456 77.1292 38.0991 81.0166C37.3177 82.3943 36.5978 83.8161 35.9421 85.2764C32.0715 92.9453 28.3253 100.682 24.4497 108.345C24.121 109.169 23.688 109.934 23.1645 110.614C16.539 110.563 9.91357 110.614 3.28812 110.614C2.47209 110.632 1.6609 110.761 0.87207 111C0.87207 108.913 2.09753 107.239 2.92446 105.487C3.92077 103.133 5.25084 100.949 6.25213 98.5892C14.1927 82.4119 22.0486 66.178 29.9643 49.9894C31.7576 46.4726 33.2969 42.8821 35.1002 39.4334C37.3519 34.8956 39.4491 30.2557 41.7954 25.769C42.5427 23.8915 43.5489 22.1728 44.3709 20.3406C47.2901 14.4245 50.1544 8.47432 53.0637 2.55818C53.4088 1.63424 53.8703 0.772474 54.4336 0Z" fill="#A9A9A9"/>
<path d="M132.403 23.449C136.324 15.6497 140.11 7.76529 144.085 0H165.346C165.656 0.0178384 165.963 0.0729774 166.263 0.164495C165.556 1.38403 164.963 2.6773 164.34 3.94788C159.212 14.4264 154.1 24.9106 149.002 35.4004C146.86 39.6716 144.867 44.0393 142.695 48.2878L142.481 48.3728L142.441 48.906C132.445 69.3261 122.482 89.7613 112.552 110.212C93.0344 110.234 73.515 110.234 53.994 110.212C55.1049 107.568 56.42 105.044 57.6555 102.475C63.2149 90.8352 68.9187 79.2979 74.3984 67.6585C86.3906 67.6358 98.3829 67.6358 110.375 67.6585C117.783 52.9674 125.031 38.1628 132.384 23.449H132.403Z" fill="#A9A9A9"/>
</svg>
