<svg width="148" height="127" viewBox="0 0 148 127" fill="none" xmlns="http://www.w3.org/2000/svg">
<path d="M145.784 78.7792C135.898 112.453 95.8763 133.037 56.053 124.613C16.4991 116.197 -7.67848 82.1244 2.21594 48.2208C12.1024 14.5465 52.1237 -6.03709 91.947 2.38654C131.501 10.8034 155.678 44.8756 145.784 78.7792Z" fill="#A9A9A9"/>
<path d="M117.131 55.9527C118.897 47.9331 109.846 43.6148 97.4901 40.8002L101.462 29.9532L91.7516 28.321L87.7795 38.8596L79.8353 37.6708L83.8074 27.1322L74.0967 25.5L70.1247 36.347L63.9469 35.306L50.5793 33.0762L47.9344 40.0548L55.0001 41.2436C56.3712 41.3488 57.6256 41.8129 58.4922 42.5356C59.3588 43.2583 59.7679 44.1816 59.6311 45.1057L55.0001 57.4435C55.2198 57.4435 55.6685 57.5913 56.1077 57.5913C55.8881 57.5913 55.4394 57.4435 55.0001 57.4435L48.6028 74.678C48.1636 75.4234 46.8363 76.76 44.1915 76.3102C44.1915 76.458 37.1257 75.1214 37.1257 75.1214L32.3516 82.704L45.1463 84.786L52.212 85.9748L48.2399 96.899L57.9506 98.5312L61.9226 87.6842L69.5613 89.0208L65.5892 99.8678L75.2998 101.5L79.2719 90.5758C96.0483 92.6579 108.394 91.9124 113.703 81.663C117.904 73.502 113.483 68.8111 104.651 65.6174C111.278 64.7177 115.918 61.9031 117.236 55.9591L117.131 55.9527ZM94.8357 77.197C91.742 85.3579 71.4423 80.9112 64.8158 79.8702L70.1151 65.3153C76.7416 66.3563 97.9293 68.5283 94.9407 77.2034L94.8357 77.197ZM97.9293 55.9527C95.2844 63.3811 78.0688 59.6669 72.5499 58.6259L77.3241 45.4077C82.843 46.4487 100.717 48.0809 97.8529 55.9463L97.9293 55.9527Z" fill="#F8F8FC"/>
</svg>
