<svg width="153" height="115" viewBox="0 0 153 115" fill="none" xmlns="http://www.w3.org/2000/svg">
<path d="M47.2126 49.9812L76.2907 26.8884L105.381 50L122.291 36.5558L76.2907 0L30.2907 36.5464L47.2126 49.9812Z" fill="#A9A9A9"/>
<path d="M0.29071 58.5779L17.4647 45.5045L34.6386 58.5779L17.4647 71.6513L0.29071 58.5779Z" fill="#A9A9A9"/>
<path d="M47.2297 69.0086L76.2966 90.2667L105.375 69L122.291 81.3537L122.279 81.3623L76.2966 115L30.3144 81.3796L30.2907 81.3623L47.2297 69.0086Z" fill="#A9A9A9"/>
<path d="M117.943 58.5809L135.117 45.5075L152.291 58.5809L135.117 71.6543L117.943 58.5809Z" fill="#A9A9A9"/>
<path d="M94.2783 59.4954L76.2969 46L62.9998 55.9728L61.4632 57.116L58.3155 59.4768L58.2907 59.4954L58.3155 59.5232L76.2969 73L94.2783 59.5046L94.2907 59.4954H94.2783Z" fill="#A9A9A9"/>
</svg>
