<svg width="24" height="17" viewBox="0 0 24 17" fill="none" xmlns="http://www.w3.org/2000/svg">
<path fill-rule="evenodd" clip-rule="evenodd" d="M16.9436 0.275169C17.5628 0.093503 18.2264 0 18.8966 0C19.5668 0 20.2304 0.093503 20.8496 0.275169C21.4688 0.456835 22.0314 0.723107 22.5052 1.05878C22.9791 1.39446 23.3551 1.79296 23.6115 2.23154C23.868 2.67013 24 3.1402 24 3.61491C24 4.08963 23.868 4.55969 23.6115 4.99828C23.3551 5.43686 22.9791 5.83536 22.5052 6.17104L7.53059 16.7781C7.32999 16.9202 7.05793 17 6.77425 17H1.06962C0.478885 17 0 16.6608 0 16.2424V12.2016C0 12.0006 0.112692 11.8079 0.313284 11.6658L15.2879 1.05878C15.7618 0.723107 16.3244 0.456835 16.9436 0.275169ZM18.8966 1.51529C18.5073 1.51529 18.1219 1.5696 17.7623 1.67512C17.4026 1.78063 17.0759 1.93529 16.8006 2.13026L2.13924 12.5154V15.4847H6.3312L20.9926 5.09956C21.2678 4.9046 21.4862 4.67314 21.6351 4.4184C21.7841 4.16366 21.8608 3.89064 21.8608 3.61491C21.8608 3.33918 21.7841 3.06616 21.6351 2.81142C21.4862 2.55669 21.2678 2.32522 20.9926 2.13026C20.7173 1.93529 20.3906 1.78063 20.0309 1.67512C19.6713 1.5696 19.2859 1.51529 18.8966 1.51529Z" fill="white"/>
</svg>
