<svg width="31" height="30" viewBox="0 0 31 30" fill="none" xmlns="http://www.w3.org/2000/svg">
<path d="M15.4997 2.5C12.1155 2.5 9.36426 5.1625 9.36426 8.4375C9.36426 11.65 11.9605 14.25 15.3447 14.3625C15.448 14.35 15.5513 14.35 15.6288 14.3625C15.6547 14.3625 15.6676 14.3625 15.6934 14.3625C15.7063 14.3625 15.7063 14.3625 15.7193 14.3625C19.0259 14.25 21.6222 11.65 21.6351 8.4375C21.6351 5.1625 18.8838 2.5 15.4997 2.5Z" fill="white"/>
<path d="M22.0613 17.6871C18.4575 15.3621 12.5804 15.3621 8.95083 17.6871C7.31042 18.7496 6.40625 20.1871 6.40625 21.7246C6.40625 23.2621 7.31042 24.6871 8.93792 25.7371C10.7463 26.9121 13.1229 27.4996 15.4996 27.4996C17.8763 27.4996 20.2529 26.9121 22.0613 25.7371C23.6888 24.6746 24.5929 23.2496 24.5929 21.6996C24.58 20.1621 23.6888 18.7371 22.0613 17.6871Z" fill="white"/>
</svg>
