<svg width="201" height="200" viewBox="0 0 201 200" fill="none" xmlns="http://www.w3.org/2000/svg">
<path d="M150.936 163.699C146.535 167.322 141.644 170.307 136.407 172.568C136.287 172.622 136.165 172.671 136.042 172.723L129.078 164.753C129.171 164.687 129.274 164.613 129.385 164.532C135.97 159.743 170.131 124.716 173.301 115.516C173.065 116.286 170.927 147.414 150.936 163.699Z" fill="#0A1F44"/>
<path d="M140.192 173.464C140.038 173.475 139.882 173.483 139.726 173.488L134.72 167.325C134.841 167.304 134.983 167.279 135.145 167.252C137.813 166.783 145.765 165.35 153.742 163.537C162.315 161.588 170.92 159.206 173.035 157.112C172.574 157.604 158.427 172.478 140.192 173.464Z" fill="#0A1F44"/>
<path d="M67.7882 50.9488V78.5458C63.3911 79.6994 58.7873 79.8318 54.3309 78.9326C49.8744 78.0335 45.6842 76.1269 42.0826 73.3595C38.481 70.592 35.564 67.0375 33.556 62.9694C31.548 58.9013 30.5025 54.428 30.5 49.8937C30.5 49.0844 30.5326 48.2835 30.5978 47.491H46.9123C47.6945 47.4918 48.4648 47.3005 49.1554 46.9341C49.8459 46.5677 50.4355 46.0374 50.8719 45.3901C51.3084 44.7428 51.5784 43.9982 51.6581 43.2222C51.7378 42.4462 51.6247 41.6626 51.3289 40.9404H57.7488C59.067 40.94 60.3724 41.1985 61.5904 41.7012C62.8085 42.204 63.9152 42.9411 64.8475 43.8705C65.7798 44.7999 66.5194 45.9034 67.0239 47.1179C67.5285 48.3324 67.7882 49.6342 67.7882 50.9488Z" fill="#0A1F44"/>
<path d="M142.602 57.8196H141.721V33.8645C141.721 32.0438 141.359 30.2409 140.656 28.5588C139.954 26.8767 138.924 25.3483 137.626 24.0608C136.328 22.7734 134.786 21.7521 133.09 21.0554C131.394 20.3586 129.576 20 127.74 20H76.5642C72.8563 20 69.3004 21.4607 66.6785 24.0608C64.0567 26.6609 62.5837 30.1874 62.5837 33.8645V165.284C62.5837 168.961 64.0567 172.487 66.6785 175.088C69.3003 177.688 72.8563 179.148 76.5641 179.148H127.74C131.448 179.148 135.004 177.688 137.626 175.088C140.248 172.487 141.721 168.961 141.721 165.284V74.8712H142.602L142.602 57.8196Z" fill="#111111"/>
<path d="M138.745 33.9618V165.188C138.745 167.934 137.645 170.568 135.687 172.509C133.729 174.451 131.073 175.542 128.304 175.542H76.8823C74.1132 175.542 71.4575 174.451 69.4995 172.509C67.5415 170.568 66.4415 167.934 66.4414 165.188V33.9618C66.4415 31.2157 67.5415 28.582 69.4995 26.6402C71.4576 24.6984 74.1132 23.6075 76.8823 23.6074H83.1203C82.8138 24.3544 82.6971 25.1647 82.7804 25.9669C82.8638 26.7691 83.1446 27.5388 83.5983 28.2081C84.0519 28.8774 84.6645 29.4259 85.382 29.8054C86.0996 30.1849 86.9002 30.3836 87.7134 30.3842H117.032C117.845 30.3836 118.646 30.1849 119.363 29.8054C120.081 29.4259 120.693 28.8774 121.147 28.2081C121.601 27.5388 121.881 26.7691 121.965 25.9669C122.048 25.1647 121.931 24.3544 121.625 23.6074H128.304C131.073 23.6075 133.729 24.6984 135.687 26.6402C137.645 28.582 138.745 31.2157 138.745 33.9618Z" fill="white"/>
<path d="M79.6232 35.7788C78.6966 35.7788 77.779 35.9598 76.9229 36.3115C76.0668 36.6631 75.289 37.1786 74.6337 37.8284C73.9785 38.4781 73.4588 39.2496 73.1041 40.0986C72.7495 40.9476 72.567 41.8575 72.567 42.7764C72.567 43.6954 72.7495 44.6053 73.1041 45.4543C73.4587 46.3033 73.9785 47.0748 74.6337 47.7245C75.2889 48.3743 76.0668 48.8898 76.9229 49.2415C77.779 49.5931 78.6965 49.7741 79.6231 49.7741H79.6232C81.4946 49.7741 83.2893 49.0369 84.6126 47.7246C85.9359 46.4123 86.6793 44.6324 86.6793 42.7765C86.6793 40.9206 85.9359 39.1407 84.6126 37.8284C83.2893 36.5161 81.4946 35.7788 79.6232 35.7788Z" fill="#F2F2F2"/>
<path d="M130.855 48.68H93.8104C93.3426 48.68 92.8939 48.4957 92.5631 48.1676C92.2323 47.8395 92.0464 47.3945 92.0464 46.9306C92.0464 46.4666 92.2323 46.0216 92.5631 45.6935C92.8939 45.3655 93.3426 45.1812 93.8104 45.1812H130.855C131.323 45.1812 131.772 45.3655 132.103 45.6935C132.433 46.0216 132.619 46.4666 132.619 46.9306C132.619 47.3945 132.433 47.8395 132.103 48.1676C131.772 48.4957 131.323 48.68 130.855 48.68Z" fill="#F2F2F2"/>
<path d="M105.497 41.2454H93.8104C93.3426 41.2454 92.8939 41.0611 92.5631 40.733C92.2323 40.4049 92.0464 39.96 92.0464 39.496C92.0464 39.032 92.2323 38.5871 92.5631 38.259C92.8939 37.9309 93.3426 37.7466 93.8104 37.7466H105.497C105.965 37.7466 106.414 37.9309 106.745 38.259C107.075 38.5871 107.261 39.032 107.261 39.496C107.261 39.96 107.075 40.4049 106.745 40.733C106.414 41.0611 105.965 41.2454 105.497 41.2454Z" fill="#F2F2F2"/>
<path d="M79.6232 65.0806C78.6966 65.0806 77.779 65.2616 76.9229 65.6132C76.0668 65.9649 75.289 66.4803 74.6337 67.1301C73.9785 67.7799 73.4588 68.5513 73.1041 69.4003C72.7495 70.2493 72.567 71.1593 72.567 72.0782C72.567 72.9972 72.7495 73.9071 73.1041 74.7561C73.4587 75.6051 73.9785 76.3765 74.6337 77.0263C75.2889 77.6761 76.0668 78.1916 76.9229 78.5432C77.779 78.8949 78.6965 79.0759 79.6231 79.0759H79.6232C81.4946 79.0759 83.2893 78.3387 84.6126 77.0263C85.9359 75.714 86.6793 73.9341 86.6793 72.0782C86.6793 70.2223 85.9359 68.4425 84.6126 67.1301C83.2893 65.8178 81.4946 65.0806 79.6232 65.0806Z" fill="#F2F2F2"/>
<path d="M130.855 77.9822H93.8104C93.3426 77.9822 92.8939 77.7979 92.5631 77.4698C92.2323 77.1418 92.0464 76.6968 92.0464 76.2328C92.0464 75.7688 92.2323 75.3239 92.5631 74.9958C92.8939 74.6677 93.3426 74.4834 93.8104 74.4834H130.855C131.323 74.4834 131.772 74.6677 132.103 74.9958C132.433 75.3239 132.619 75.7688 132.619 76.2328C132.619 76.6968 132.433 77.1418 132.103 77.4698C131.772 77.7979 131.323 77.9822 130.855 77.9822Z" fill="#F2F2F2"/>
<path d="M105.497 70.5477H93.8104C93.3426 70.5477 92.8939 70.3634 92.5631 70.0353C92.2323 69.7072 92.0464 69.2622 92.0464 68.7982C92.0464 68.3343 92.2323 67.8893 92.5631 67.5612C92.8939 67.2331 93.3426 67.0488 93.8104 67.0488H105.497C105.965 67.0488 106.414 67.2331 106.745 67.5612C107.075 67.8893 107.261 68.3343 107.261 68.7982C107.261 69.2622 107.075 69.7072 106.745 70.0353C106.414 70.3634 105.965 70.5477 105.497 70.5477Z" fill="#F2F2F2"/>
<path d="M79.6232 123.686C77.7518 123.686 75.957 124.423 74.6337 125.735C73.3104 127.047 72.567 128.827 72.567 130.683C72.567 132.539 73.3104 134.319 74.6337 135.631C75.957 136.944 77.7517 137.681 79.6231 137.681H79.6232C81.4946 137.681 83.2893 136.944 84.6126 135.631C85.9359 134.319 86.6793 132.539 86.6793 130.683C86.6793 128.827 85.9359 127.047 84.6126 125.735C83.2893 124.423 81.4946 123.686 79.6232 123.686Z" fill="#F2F2F2"/>
<path d="M130.855 136.588H93.8104C93.3426 136.588 92.8939 136.403 92.5631 136.075C92.2323 135.747 92.0464 135.302 92.0464 134.838C92.0464 134.374 92.2323 133.929 92.5631 133.601C92.8939 133.273 93.3426 133.089 93.8104 133.089H130.855C131.323 133.089 131.772 133.273 132.103 133.601C132.433 133.929 132.619 134.374 132.619 134.838C132.619 135.302 132.433 135.747 132.103 136.075C131.772 136.403 131.323 136.588 130.855 136.588Z" fill="#F2F2F2"/>
<path d="M105.497 129.152H93.8104C93.3426 129.152 92.8939 128.968 92.5631 128.64C92.2323 128.312 92.0464 127.867 92.0464 127.403C92.0464 126.939 92.2323 126.494 92.5631 126.166C92.8939 125.838 93.3426 125.653 93.8104 125.653H105.497C105.965 125.653 106.414 125.838 106.745 126.166C107.075 126.494 107.261 126.939 107.261 127.403C107.261 127.867 107.075 128.312 106.745 128.64C106.414 128.968 105.965 129.152 105.497 129.152Z" fill="#F2F2F2"/>
<path d="M79.6232 152.989C78.6966 152.989 77.779 153.17 76.9229 153.521C76.0668 153.873 75.289 154.389 74.6337 155.038C73.9785 155.688 73.4588 156.46 73.1041 157.309C72.7495 158.158 72.567 159.067 72.567 159.986C72.567 160.905 72.7495 161.815 73.1041 162.664C73.4587 163.513 73.9785 164.285 74.6337 164.935C75.2889 165.584 76.0668 166.1 76.9229 166.451C77.779 166.803 78.6965 166.984 79.6231 166.984H79.6232C81.4946 166.984 83.2893 166.247 84.6126 164.935C85.9359 163.622 86.6793 161.842 86.6793 159.986C86.6793 158.131 85.9359 156.351 84.6126 155.038C83.2893 153.726 81.4946 152.989 79.6232 152.989Z" fill="#F2F2F2"/>
<path d="M130.855 165.891H93.8104C93.3426 165.891 92.8939 165.707 92.5631 165.379C92.2323 165.05 92.0464 164.605 92.0464 164.142C92.0464 163.678 92.2323 163.233 92.5631 162.904C92.8939 162.576 93.3426 162.392 93.8104 162.392H130.855C131.323 162.392 131.772 162.576 132.103 162.904C132.433 163.233 132.619 163.678 132.619 164.142C132.619 164.605 132.433 165.05 132.103 165.379C131.772 165.707 131.323 165.891 130.855 165.891Z" fill="#F2F2F2"/>
<path d="M105.497 158.455H93.8104C93.3426 158.455 92.8939 158.271 92.5631 157.943C92.2323 157.615 92.0464 157.17 92.0464 156.706C92.0464 156.242 92.2323 155.797 92.5631 155.469C92.8939 155.141 93.3426 154.957 93.8104 154.957H105.497C105.965 154.957 106.414 155.141 106.745 155.469C107.075 155.797 107.261 156.242 107.261 156.706C107.261 157.17 107.075 157.615 106.745 157.943C106.414 158.271 105.965 158.455 105.497 158.455Z" fill="#F2F2F2"/>
<path d="M145.15 118.219H60.0357C59.0711 118.218 58.1463 117.837 57.4642 117.161C56.7822 116.485 56.3985 115.567 56.3974 114.611V87.4949C56.3985 86.5383 56.7822 85.6212 57.4642 84.9447C58.1463 84.2683 59.0711 83.8878 60.0357 83.8867H145.15C146.115 83.8878 147.04 84.2683 147.722 84.9447C148.404 85.6212 148.788 86.5383 148.789 87.4949V114.611C148.788 115.567 148.404 116.485 147.722 117.161C147.04 117.837 146.115 118.218 145.15 118.219Z" fill="white"/>
<ellipse cx="7.04074" cy="6.99622" rx="7.04074" ry="6.99622" transform="matrix(1.00041 0 -0.00116196 0.999591 72.8702 94.3467)" fill="#FFBE55"/>
<path d="M79.2479 105.021C78.1506 104.925 77.0587 104.125 77.0592 103.707C77.0597 103.297 77.3945 103.104 77.7236 102.856C78.0527 102.608 79.5531 104.112 80.451 103.81C81.349 103.507 80.8094 102.705 80.0022 102.183C79.0511 101.567 78.3648 101.11 77.7266 100.13C77.3825 99.6465 76.8329 98.288 77.9731 97.6848C78.3297 97.4961 78.4652 97.3768 79.5155 97.4087L79.5384 96.694C79.7815 96.4183 80.7949 96.4313 81.0756 96.7406L81.0527 97.4553C81.6972 97.6101 83.2327 98.0419 83.3835 98.5057C83.5633 98.6969 83.6979 99.2521 83.3822 99.6331C82.8584 100.265 79.2582 98.1509 79.5419 99.6331C79.7744 100.848 84.0467 102.102 82.8348 103.958C82.5788 104.583 81.4903 105.12 80.8087 105.069L80.7864 105.766C80.4464 106.164 79.4566 106.104 79.247 105.788L79.2479 105.021Z" fill="white"/>
<path d="M130.855 106.957H93.8099C93.342 106.957 92.8933 106.773 92.5625 106.444C92.2317 106.116 92.0458 105.671 92.0458 105.207C92.0458 104.743 92.2317 104.298 92.5625 103.97C92.8933 103.642 93.342 103.458 93.8099 103.458H130.855C131.322 103.458 131.771 103.642 132.102 103.97C132.433 104.298 132.619 104.743 132.619 105.207C132.619 105.671 132.433 106.116 132.102 106.444C131.771 106.773 131.322 106.957 130.855 106.957Z" fill="#0A1F44"/>
<path d="M105.497 99.5218H93.8099C93.342 99.5218 92.8933 99.3375 92.5625 99.0094C92.2317 98.6813 92.0458 98.2363 92.0458 97.7724C92.0458 97.3084 92.2317 96.8634 92.5625 96.5353C92.8933 96.2073 93.342 96.0229 93.8099 96.0229H105.497C105.964 96.0229 106.413 96.2073 106.744 96.5353C107.075 96.8634 107.261 97.3084 107.261 97.7724C107.261 98.2363 107.075 98.6813 106.744 99.0094C106.413 99.3375 105.964 99.5218 105.497 99.5218Z" fill="#0A1F44"/>
<rect x="56.7115" y="83.8332" width="91.7631" height="34.2727" stroke="#2C3131" stroke-width="0.628217"/>
<ellipse cx="7.04074" cy="6.99622" rx="7.04074" ry="6.99622" transform="matrix(1.00041 0 -0.00116196 0.999591 72.8701 93.6479)" fill="#FF9B42"/>
<path d="M79.2473 104.323C78.15 104.226 77.0582 103.426 77.0586 103.008C77.0591 102.599 77.394 102.405 77.723 102.157C78.0521 101.909 79.5525 103.413 80.4505 103.111C81.3484 102.808 80.8089 102.006 80.0016 101.484C79.0505 100.869 78.3642 100.411 77.7261 99.4311C77.3819 98.9477 76.8323 97.5893 77.9726 96.9861C78.3292 96.7974 78.4647 96.678 79.515 96.7099L79.5379 95.9952C79.781 95.7196 80.7944 95.7326 81.075 96.0419L81.0521 96.7566C81.6966 96.9114 83.2322 97.3431 83.3829 97.807C83.5628 97.9981 83.6974 98.5534 83.3817 98.9344C82.8579 99.5664 79.2576 97.4522 79.5414 98.9344C79.7739 100.149 84.0461 101.403 82.8342 103.259C82.5782 103.884 81.4897 104.421 80.8082 104.37L80.7858 105.068C80.4458 105.465 79.4561 105.405 79.2465 105.089L79.2473 104.323Z" fill="white"/>
<path d="M163.688 59.4553L154.056 52.1089L146.689 61.7142L156.321 69.0605L163.688 59.4553Z" fill="#FF9B42"/>
</svg>
