<svg width="201" height="200" viewBox="0 0 201 200" fill="none" xmlns="http://www.w3.org/2000/svg">
<path d="M154.465 76.9688H46.1144V169.684H154.465V76.9688Z" fill="white"/>
<path d="M154.78 170H45.7996V76.6523H154.78V170ZM46.4295 169.367H154.15V77.2852H46.4295V169.367Z" fill="#2C3131"/>
<path d="M113.833 95.0049H86.7455V169.683H113.833V95.0049Z" fill="#699CFF"/>
<path d="M113.833 95.0049H86.7455V169.683H113.833V95.0049Z" fill="#0A1F44"/>
<path d="M160.764 68.4248H39.8151V95.0052H160.764V68.4248Z" fill="white"/>
<path d="M161.079 95.3221H39.5V68.1089H161.079V95.3221ZM40.1299 94.6892H160.449V68.7418H40.1299V94.6892Z" fill="#2C3131"/>
<path d="M113.833 65.8936H86.7455V94.689H113.833V65.8936Z" fill="#0A1F44"/>
<path d="M97.3893 40.7865C104.54 51.435 97.8027 68.5616 97.8027 68.5616C97.8027 68.5616 79.4729 68.4235 72.3226 57.775C65.1723 47.1266 71.9092 30 71.9092 30C71.9092 30 90.239 30.1381 97.3893 40.7865Z" fill="#0A1F44"/>
<path d="M100.67 40.7865C93.5195 51.435 100.256 68.5616 100.256 68.5616C100.256 68.5616 118.586 68.4235 125.737 57.775C132.887 47.1266 126.15 30 126.15 30C126.15 30 107.82 30.1381 100.67 40.7865Z" fill="#0A1F44"/>
<ellipse cx="21.871" cy="22.016" rx="21.871" ry="22.016" transform="matrix(1.00041 0 -0.0011555 0.999591 78.7513 103.261)" fill="#FF9B42"/>
<path d="M98.5619 136.85C95.1533 136.546 91.7616 134.03 91.7631 132.713C91.7645 131.425 92.8047 130.816 93.8269 130.036C94.8491 129.257 99.5099 133.989 102.299 133.037C105.089 132.085 103.413 129.56 100.905 127.917C97.9506 125.982 95.8186 124.542 93.8364 121.457C92.7672 119.936 91.0601 115.662 94.6021 113.763C95.7098 113.17 96.1306 112.794 99.3933 112.894L99.4645 110.645C100.22 109.778 103.368 109.819 104.239 110.792L104.168 113.041C106.17 113.528 110.94 114.887 111.408 116.347C111.967 116.948 112.385 118.696 111.405 119.894C109.778 121.883 98.5939 115.23 99.4753 119.894C100.198 123.717 113.469 127.663 109.704 133.504C108.909 135.472 105.528 137.16 103.41 137L103.341 139.194C102.285 140.445 99.2104 140.257 98.5593 139.263L98.5619 136.85Z" fill="white"/>
</svg>
