<svg width="201" height="201" viewBox="0 0 201 201" fill="none" xmlns="http://www.w3.org/2000/svg">
<path d="M84.9822 55.668C86.5981 55.6667 88.1919 56.0429 89.6358 56.7663C91.0798 57.4897 92.3339 58.5403 93.2976 59.8339L99.2695 52.0465L81.351 38.3784L67.6464 56.2492L75.3692 62.1401C76.1421 60.2285 77.4702 58.5909 79.1831 57.4376C80.896 56.2844 82.9155 55.6681 84.9822 55.668Z" fill="#FF9B42"/>
<path d="M168.976 122.138H198.36C199.588 126.794 199.729 131.67 198.772 136.389C197.815 141.109 195.785 145.546 192.838 149.36C189.891 153.174 186.107 156.264 181.775 158.39C177.443 160.517 172.68 161.624 167.853 161.626C166.991 161.626 166.138 161.592 165.294 161.523V144.246C165.295 143.417 165.091 142.602 164.701 141.87C164.311 141.139 163.747 140.515 163.057 140.052C162.368 139.59 161.575 139.304 160.749 139.22C159.923 139.135 159.088 139.255 158.319 139.568V132.77C158.319 131.374 158.594 129.991 159.13 128.701C159.665 127.411 160.45 126.239 161.439 125.252C162.429 124.265 163.604 123.482 164.897 122.947C166.19 122.413 167.576 122.138 168.976 122.138Z" fill="#0A1F44"/>
<path d="M19.5494 132.163L9.32213 124.362L1.5 134.562L11.7273 142.363L19.5494 132.163Z" fill="#0A1F44"/>
<path d="M151.39 62.7158L160.597 131.56L25.7388 152.601L16.5311 83.7572L151.39 62.7158Z" fill="#F1F1F1" stroke="#111111" stroke-width="0.563637"/>
<path d="M148.555 68.9486L20.8833 88.8687L28.6279 146.774L156.3 126.854L148.555 68.9486Z" fill="white"/>
<path d="M150.796 58.7148L151.552 64.3696L16.6934 85.411L15.9371 79.7562L150.796 58.7148Z" fill="#E5E5E5" stroke="#111111" stroke-width="0.563637"/>
<path d="M20.385 83.67C20.9801 83.67 21.4625 83.149 21.4625 82.5064C21.4625 81.8637 20.9801 81.3428 20.385 81.3428C19.7899 81.3428 19.3075 81.8637 19.3075 82.5064C19.3075 83.149 19.7899 83.67 20.385 83.67Z" fill="white"/>
<path d="M24.4322 83.0396C25.0273 83.0396 25.5097 82.5187 25.5097 81.876C25.5097 81.2334 25.0273 80.7124 24.4322 80.7124C23.8372 80.7124 23.3548 81.2334 23.3548 81.876C23.3548 82.5187 23.8372 83.0396 24.4322 83.0396Z" fill="white"/>
<path d="M28.4795 82.4078C29.0746 82.4078 29.557 81.8868 29.557 81.2442C29.557 80.6015 29.0746 80.0806 28.4795 80.0806C27.8844 80.0806 27.402 80.6015 27.402 81.2442C27.402 81.8868 27.8844 82.4078 28.4795 82.4078Z" fill="white"/>
<path d="M182.457 92.5371V162.097H46.1989V92.5371H182.457Z" fill="#E6E6E6" stroke="#111111" stroke-width="0.563637"/>
<path d="M182.378 88.5068V94.1797H46.1611V88.5068H182.378Z" fill="#E5E5E5" stroke="#111111" stroke-width="0.604864"/>
<path d="M50.1777 93.0597C50.7727 93.0597 51.2552 92.5387 51.2552 91.896C51.2552 91.2534 50.7727 90.7324 50.1777 90.7324C49.5826 90.7324 49.1002 91.2534 49.1002 91.896C49.1002 92.5387 49.5826 93.0597 50.1777 93.0597Z" fill="white"/>
<path d="M54.2669 93.0597C54.8619 93.0597 55.3444 92.5387 55.3444 91.896C55.3444 91.2534 54.8619 90.7324 54.2669 90.7324C53.6718 90.7324 53.1894 91.2534 53.1894 91.896C53.1894 92.5387 53.6718 93.0597 54.2669 93.0597Z" fill="white"/>
<path d="M58.3564 93.0597C58.9514 93.0597 59.4338 92.5387 59.4338 91.896C59.4338 91.2534 58.9514 90.7324 58.3564 90.7324C57.7613 90.7324 57.2789 91.2534 57.2789 91.896C57.2789 92.5387 57.7613 93.0597 58.3564 93.0597Z" fill="white"/>
<path d="M178.544 98.5508V156.493H50.111V98.5508H178.544Z" fill="white" stroke="#111111" stroke-width="0.563637"/>
<ellipse cx="151.046" cy="121.986" rx="7.0611" ry="7.08383" fill="#0A1F44"/>
<path d="M162.222 140.173C162.222 138.846 161.934 137.531 161.375 136.305C160.816 135.078 159.997 133.964 158.965 133.026C157.932 132.087 156.706 131.342 155.357 130.834C154.008 130.326 152.562 130.065 151.101 130.065C149.641 130.065 148.195 130.326 146.846 130.834C145.497 131.342 144.271 132.087 143.238 133.026C142.205 133.964 141.386 135.078 140.827 136.305C140.269 137.531 139.981 138.846 139.981 140.173L151.101 140.173H162.222Z" fill="#0A1F44"/>
<path d="M84.8557 140.576H66.6881V142.051H84.8557V140.576Z" fill="#E6E6E6"/>
<path d="M87.1213 144.409H64.2573V145.884H87.1213V144.409Z" fill="#E6E6E6"/>
<path d="M84.2386 118.174H66.256V132.139H84.2386V118.174Z" fill="#FF9B42"/>
<path d="M86.0369 131.043H68.7736C68.5829 131.043 68.4 130.959 68.2652 130.809C68.1303 130.659 68.0545 130.457 68.0543 130.245V117.077C68.0545 116.866 68.1303 116.663 68.2652 116.513C68.4 116.364 68.5829 116.28 68.7736 116.279H86.0369C86.2276 116.28 86.4105 116.364 86.5453 116.513C86.6802 116.663 86.756 116.866 86.7562 117.077V130.245C86.756 130.457 86.6802 130.659 86.5453 130.809C86.4105 130.959 86.2276 131.043 86.0369 131.043ZM68.7736 117.077V130.245H86.0374L86.0369 117.077H68.7736Z" fill="#0A1F44"/>
<path d="M84.0586 116.578H83.3393C83.3393 114.832 82.7141 113.157 81.6012 111.923C80.4883 110.688 78.9789 109.994 77.405 109.994C75.8311 109.994 74.3217 110.688 73.2088 111.923C72.096 113.157 71.4707 114.832 71.4707 116.578H70.7514C70.7514 114.62 71.4524 112.743 72.7002 111.358C73.948 109.974 75.6404 109.196 77.405 109.196C79.1696 109.196 80.862 109.974 82.1098 111.358C83.3576 112.743 84.0586 114.62 84.0586 116.578Z" fill="#0A1F44"/>
<path d="M79.204 122.064C79.2043 121.717 79.1229 121.375 78.9677 121.074C78.8126 120.772 78.5891 120.52 78.3193 120.344C78.0496 120.167 77.743 120.072 77.4298 120.067C77.1167 120.062 76.8078 120.148 76.5339 120.317C76.2599 120.485 76.0303 120.73 75.8679 121.027C75.7054 121.324 75.6156 121.663 75.6075 122.01C75.5994 122.357 75.6731 122.701 75.8215 123.007C75.9698 123.313 76.1876 123.571 76.4533 123.755V125.896C76.4533 126.035 76.478 126.172 76.5258 126.3C76.5737 126.428 76.6438 126.545 76.7322 126.643C76.8206 126.741 76.9256 126.819 77.0411 126.872C77.1566 126.925 77.2804 126.952 77.4055 126.952C77.658 126.952 77.9002 126.841 78.0787 126.643C78.2573 126.445 78.3576 126.176 78.3576 125.896V123.755C78.6165 123.576 78.83 123.327 78.9781 123.031C79.1262 122.735 79.2039 122.403 79.204 122.064Z" fill="#3F3D56"/>
</svg>
